<svg width="350" height="90" viewBox="0 0 350 90" xmlns="http://www.w3.org/2000/svg">
  <path fill="#fff" style="display:inline;stroke-width:.670822" d="M0 0h350v90H0z"/>
  <g style="display:inline">
    <path d="M20.865 2.69q-5.376 0-8.32 1.023-2.945.96-4.16 3.072-1.152 2.112-1.153 5.504v9.408q0 2.944-1.855 4.287Q3.584 27.328 0 27.328v7.041q7.232 0 7.232 5.631v9.408q.001 3.52 1.217 5.633 1.28 2.112 4.223 3.008 3.008.96 8.193.959V52.16q-2.816-.127-4.224-1.023-1.344-.897-1.344-3.457v-9.344q0-6.271-6.53-7.295v-.385q6.53-1.023 6.53-7.424v-9.279q0-2.625 1.47-3.457 1.474-.895 4.098-.959z" style="fill:#0284c7" transform="translate(10.968 12.84)"/>
    <path d="M59.264 13.697q-3.52 0-5.696 1.791-2.113 1.729-3.904 5.121h-.256l-.767-6.273H34.625v3.969l9.408.832V43.84L33.6 44.8v3.84h26.24V44.8l-9.983-.96V31.424q0-3.456 1.215-6.336T54.4 20.48t4.864-1.728q1.6 0 3.007.45 1.41.382 2.434.958l1.535-5.055a16 16 0 0 0-3.136-1.025q-1.665-.384-3.84-.383m29.248 0q-6.207 0-9.727 2.303-3.456 2.304-3.457 6.848 0 2.752 1.281 4.545 1.28 1.728 3.647 3.007t5.697 2.752q3.328 1.409 5.055 2.305 1.728.895 2.305 1.791.64.832.64 2.176 0 2.496-1.793 3.84-1.728 1.28-5.951 1.28-3.777 0-6.53-.831a50 50 0 0 1-4.927-1.92v5.312q2.112 1.024 4.992 1.6 2.944.576 6.145.576 6.848 0 10.304-2.56 3.52-2.56 3.52-7.424 0-2.944-1.217-4.608-1.215-1.728-3.584-2.945-2.368-1.215-5.76-2.623-3.008-1.28-4.863-2.176-1.792-.896-2.625-1.857-.768-.96-.768-2.367 0-2.176 1.792-3.2 1.855-1.024 5.824-1.025 2.112 0 4.224.385 2.177.384 4.737 1.473l1.728-4.481q-2.752-1.152-5.312-1.664a27.4 27.4 0 0 0-5.377-.512m76.8 0q-6.207 0-9.728 2.303-3.456 2.304-3.455 6.848 0 2.752 1.28 4.545 1.28 1.728 3.648 3.007 2.367 1.28 5.695 2.752 3.329 1.409 5.057 2.305 1.728.895 2.304 1.791.64.832.639 2.176 0 2.496-1.791 3.84-1.728 1.28-5.953 1.28-3.776 0-6.528-.831a50 50 0 0 1-4.927-1.92v5.312q2.112 1.024 4.992 1.6 2.944.576 6.144.576 6.849 0 10.303-2.56 3.52-2.56 3.52-7.424 0-2.944-1.215-4.608-1.215-1.728-3.584-2.945-2.369-1.215-5.76-2.623-3.008-1.28-4.865-2.176-1.791-.896-2.623-1.857-.768-.96-.768-2.367 0-2.176 1.791-3.2 1.857-1.024 5.824-1.025 2.113 0 4.225.385 2.176.384 4.736 1.473L176 15.873q-2.752-1.152-5.31-1.664a27.4 27.4 0 0 0-5.378-.512m-56 .639 14.4 34.625-1.855 4.672q-1.28 3.264-2.88 4.672-1.601 1.472-4.545 1.472-1.024 0-2.112-.129a45 45 0 0 1-1.79-.255v4.416a20 20 0 0 0 2.11.32q1.216.192 2.497.191 3.712 0 5.95-1.408 2.306-1.407 3.714-3.967 1.472-2.496 2.687-5.824l14.4-38.785H136l-6.719 20.098a753 753 0 0 0-1.408 4.414 201 201 0 0 0-1.473 4.736h-.191a96 96 0 0 0-1.473-4.672 52 52 0 0 0-1.6-4.416l-8.19-20.16z" style="fill:#475569" transform="translate(10.968 12.84)"/>
    <path d="M189.313 0v5.76l9.279 1.92v33.28l-11.52 1.92v5.76h31.36v-5.76l-10.559-1.92V0Zm51.648 13.057q-5.185 0-8.961 2.24t-5.824 6.336q-1.984 4.095-1.983 9.664 0 5.44 1.983 9.473 1.984 4.032 5.697 6.271 3.712 2.24 8.959 2.24 5.44 0 9.088-2.24 3.713-2.305 5.633-6.4 1.92-4.097 1.92-9.473 0-8.575-4.48-13.31-4.417-4.8-12.032-4.801m20.928.64 11.775 17.15-12.351 17.794h11.136l6.975-11.52 6.592 11.52h11.136l-12.03-17.793 12.03-17.15h-11.136l-6.655 11.007-6.336-11.008zm-20.928 6.848q3.775 0 5.44 2.943 1.663 2.88 1.663 7.68 0 4.928-1.728 7.809-1.727 2.816-5.375 2.816-3.712 0-5.568-2.88-1.793-2.88-1.793-7.745 0-4.928 1.793-7.744 1.855-2.88 5.568-2.88" style="fill:#f59e0b" transform="translate(10.968 12.84)"/>
    <path d="M307.201 2.69v6.847q2.816.064 4.16 1.024 1.409.896 1.409 3.457v9.343q0 6.273 6.527 7.295v.385q-6.528 1.024-6.527 7.424v9.28q0 2.623-1.473 3.456-1.472.832-4.096.96v6.847q5.377-.064 8.32-1.024 3.007-.96 4.159-3.072t1.152-5.504V40q0-3.008 1.793-4.287 1.855-1.344 5.44-1.344v-7.04q-7.233 0-7.233-5.632V12.29q0-3.585-1.28-5.633-1.215-2.112-4.16-3.008-2.943-.96-8.19-.959" style="fill:#0284c7" transform="translate(10.968 12.84)"/>
  </g>
</svg>
